# xmcd
#
# Track frame offsets:
#	150
#	9984
#	22006
#	22600
#	36259
#	49576
#	66384
#	81393
#	82095
#	93542
#	105642
#	117126
#	135273
#	154520
#	169418
#	190502
#	206634
#	223143
#
# Disc length: 3120 seconds
#
# Revision: 0
# Processed by: cddbd v1.5.2PL0 Copyright (c) Steve Scherf et al.
# Submitted via: audiograbber 1.83.01
#
DISCID=ea0c2e12
DTITLE=Hillcrest  - Hillcrest Pure Country 90
DYEAR=2019
DGENRE=Country
TTITLE0=Tracy K. Houston - Before Im Fool Enough
TTITLE1=Jeff Chance and Johnny Bush - Country
TTITLE2=David McLachlan - Radio ID
TTITLE3=David McLachlan - Bluer Eyes
TTITLE4=Darnell Miller - 2052
TTITLE5=Vanessa Bourne - Not Too Old To Love Again
TTITLE6=Lonnie Bartmess - It Dont Matter
TTITLE7=Clelia Adams - Radio ID
TTITLE8=Clelia Adams - If I Could Only Win Your Love
TTITLE9=Jed Allen Freels - Life Is Like A Mountain Railroad
TTITLE10=Brandon McPhee - On The Road To Loving Me Again
TTITLE11=Curt Ryle - Hes Not Crying Anymore
TTITLE12=Lloyd Back - Everyone Has A Story
TTITLE13=Amanda McCarthy - The Only Shot
TTITLE14=Rory Ellis - Fadin
TTITLE15=Otis C Truax - Stirring Up Old Feelings
TTITLE16=Showpony Express - On The Inside
TTITLE17=The Brandon McFhee Band - Sir Jimmy Shands Bluebell Polka
EXTD=
EXTT0=
EXTT1=
EXTT2=
EXTT3=
EXTT4=
EXTT5=
EXTT6=
EXTT7=
EXTT8=
EXTT9=
EXTT10=
EXTT11=
EXTT12=
EXTT13=
EXTT14=
EXTT15=
EXTT16=
EXTT17=
PLAYORDER=
